<?xml version="1.0" encoding="UTF-8"?>
<svg width="50px" height="85px" viewBox="0 0 50 85" version="1.1" xmlns="http://www.w3.org/2000/svg" xmlns:xlink="http://www.w3.org/1999/xlink">
    <title>Fill 1 Copy 3</title>
    <g id="Page-1" stroke="none" stroke-width="1" fill="none" fill-rule="evenodd">
        <path d="M16.1290009,80.241874 C21.0684946,80.241874 24.7984023,76.1088141 25.604793,71.0684946 L28.3265504,54.9394937 L30.8467642,71.0684946 C31.6531548,76.1088141 35.3830626,80.241874 40.4233821,80.241874 C45.5645275,80.241874 50,76.0080099 50,70.6652993 C50,65.4233281 45.5645275,61.1895072 40.4233821,61.1895072 C36.9959518,61.1895072 34.1733686,62.9032223 32.6613051,65.4233281 L29.6370702,49.0926755 L34.475738,0 L28.3265504,44.1531818 L22.0766449,0 L26.8144869,49.0926755 L23.7903601,65.4233281 C22.2781885,62.9032223 19.4556053,61.1895072 16.1290009,61.1895072 C10.8871377,61.1895072 6.55241539,65.4233281 6.55241539,70.6652993 C6.55241539,76.0080099 10.8871377,80.241874 16.1290009,80.241874 Z M16.1290009,77.62091 C12.0967236,77.62091 9.17337938,74.495914 9.17337938,70.6652993 C9.17337938,66.8346737 12.0967236,63.9112646 16.1290009,63.9112646 C19.8589087,63.9112646 22.9838614,66.8346737 22.9838614,70.6652993 C22.9838614,74.495914 19.8589087,77.62091 16.1290009,77.62091 Z M6.14918767,56.7540347 L16.028175,56.7540347 C16.633022,56.7540347 17.237869,56.0483618 17.237869,55.4435148 C17.237869,54.6370162 16.633022,54.132995 16.028175,54.132995 L6.14918767,54.132995 C5.34274302,54.132995 4.9395153,54.6370162 4.9395153,55.4435148 C4.9395153,56.0483618 5.34274302,56.7540347 6.14918767,56.7540347 Z M0,85.080585 L2.62096399,13.2055918 C2.62096399,10.1814649 4.73789604,8.16527225 7.66128352,8.16527225 L16.028175,8.16527225 C16.633022,8.16527225 17.237869,7.56042526 17.237869,6.95557827 C17.237869,6.25001351 16.633022,5.74599236 16.028175,5.74599236 L7.45967507,5.74599236 C3.52822367,5.74599236 0,8.97177093 0,13.104874 L0,85.080585 Z M6.14918767,48.6894802 L16.028175,48.6894802 C16.633022,48.6894802 17.237869,47.9838073 17.237869,47.3789604 C17.237869,46.5725698 16.633022,46.0685486 16.028175,46.0685486 L6.14918767,46.0685486 C5.34274302,46.0685486 4.9395153,46.5725698 4.9395153,47.3789604 C4.9395153,47.9838073 5.34274302,48.6894802 6.14918767,48.6894802 Z M40.4233821,77.62091 C36.4919307,77.62091 33.5685216,74.495914 33.5685216,70.6652993 C33.5685216,66.8346737 36.4919307,63.9112646 40.4233821,63.9112646 C44.2540076,63.9112646 47.3789604,66.8346737 47.3789604,70.6652993 C47.3789604,74.495914 44.2540076,77.62091 40.4233821,77.62091 Z M6.14918767,40.6249257 L16.028175,40.6249257 C16.633022,40.6249257 17.237869,39.9193609 17.237869,39.314514 C17.237869,38.5080153 16.633022,38.0039941 16.028175,38.0039941 L6.14918767,38.0039941 C5.34274302,38.0039941 4.9395153,38.5080153 4.9395153,39.314514 C4.9395153,39.9193609 5.34274302,40.6249257 6.14918767,40.6249257 Z M6.14918767,32.5604793 L16.028175,32.5604793 C16.633022,32.5604793 17.237869,31.9556323 17.237869,31.3507853 C17.237869,30.6451125 16.633022,29.9394397 16.028175,29.9394397 L6.14918767,29.9394397 C5.34274302,29.9394397 4.9395153,30.6451125 4.9395153,31.3507853 C4.9395153,31.9556323 5.34274302,32.5604793 6.14918767,32.5604793 Z M6.14918767,24.6975765 L16.028175,24.6975765 C16.633022,24.6975765 17.237869,24.1935554 17.237869,23.2862308 C17.237869,22.5806661 16.633022,22.0765369 16.028175,22.0765369 L6.14918767,22.0765369 C5.34274302,22.0765369 4.9395153,22.5806661 4.9395153,23.2862308 C4.9395153,24.1935554 5.34274302,24.6975765 6.14918767,24.6975765 Z M6.14918767,16.633022 L16.028175,16.633022 C16.633022,16.633022 17.237869,16.1290009 17.237869,15.3226103 C17.237869,14.6169374 16.633022,14.0120905 16.028175,14.0120905 L6.14918767,14.0120905 C5.34274302,14.0120905 4.9395153,14.6169374 4.9395153,15.3226103 C4.9395153,16.1290009 5.34274302,16.633022 6.14918767,16.633022 Z" id="Fill-1-Copy-3" fill="#888888"></path>
    </g>
</svg>