<?xml version="1.0" encoding="UTF-8"?>
<svg width="100px" height="101px" viewBox="0 0 100 101" version="1.1" xmlns="http://www.w3.org/2000/svg" xmlns:xlink="http://www.w3.org/1999/xlink">
    <title>Fill 1</title>
    <g id="Page-1" stroke="none" stroke-width="1" fill="none" fill-rule="evenodd">
        <path d="M49.9999233,0 C80.9653387,13.6431917 103.272793,52.2804259 99.6053147,85.9188706 C72.3070914,105.914152 27.6926599,105.914152 0.394677164,85.9188706 C-3.27274592,52.2804259 19.034508,13.6431917 49.9999233,0 Z M39.3207913,31.9751416 L48.0494092,31.9751416 C48.5838241,31.9751416 49.118239,31.5298117 49.118239,30.8172267 C49.118239,30.1937267 48.5838241,29.6593118 48.0494092,29.6593118 L39.3207913,29.6593118 C38.6082063,29.6593118 38.2519615,30.1937267 38.2519615,30.8172267 C38.2519615,31.5298117 38.6082063,31.9751416 39.3207913,31.9751416 Z M33.8876526,92.4521956 L36.2033869,28.9468222 C36.2033869,26.2747476 38.0738868,24.4934282 40.6567809,24.4934282 L48.0494092,24.4934282 C48.5838241,24.4934282 49.118239,23.9590133 49.118239,23.4245984 C49.118239,22.8010984 48.5838241,22.3557685 48.0494092,22.3557685 L40.4787062,22.3557685 C37.005057,22.3557685 33.8876526,25.2059178 33.8876526,28.8577371 L33.8876526,92.4521956 Z M39.3207913,53.1732816 L48.0494092,53.1732816 C48.5838241,53.1732816 49.118239,52.5497817 49.118239,52.0153667 C49.118239,51.3028772 48.5838241,50.8574518 48.0494092,50.8574518 L39.3207913,50.8574518 C38.6082063,50.8574518 38.2519615,51.3028772 38.2519615,52.0153667 C38.2519615,52.5497817 38.6082063,53.1732816 39.3207913,53.1732816 Z M39.3207913,46.0478131 L48.0494092,46.0478131 C48.5838241,46.0478131 49.118239,45.5133982 49.118239,44.9789832 C49.118239,44.3555787 48.5838241,43.7320788 48.0494092,43.7320788 L39.3207913,43.7320788 C38.6082063,43.7320788 38.2519615,44.3555787 38.2519615,44.9789832 C38.2519615,45.5133982 38.6082063,46.0478131 39.3207913,46.0478131 Z M39.3207913,67.4241233 L48.0494092,67.4241233 C48.5838241,67.4241233 49.118239,66.8006233 49.118239,66.2662084 C49.118239,65.5537188 48.5838241,65.108389 48.0494092,65.108389 L39.3207913,65.108389 C38.6082063,65.108389 38.2519615,65.5537188 38.2519615,66.2662084 C38.2519615,66.8006233 38.6082063,67.4241233 39.3207913,67.4241233 Z M48.1384942,88.1769335 C52.5028031,88.1769335 55.7983777,84.5251142 56.5108673,80.0717202 L58.9156867,65.8208786 L61.1424314,80.0717202 C61.854921,84.5251142 65.1504955,88.1769335 69.6038895,88.1769335 C74.1463686,88.1769335 78.0653476,84.4361246 78.0653476,79.7154754 C78.0653476,75.0840068 74.1463686,71.3431024 69.6038895,71.3431024 C66.5755701,71.3431024 64.0816657,72.8572621 62.7456761,75.0840068 L60.0736016,60.654995 L64.3488254,17.2788746 L58.9156867,56.2905906 L53.3935583,17.2788746 L57.5796971,60.654995 L54.907718,75.0840068 C53.571633,72.8572621 51.0777285,71.3431024 48.1384942,71.3431024 C43.5070256,71.3431024 39.6770361,75.0840068 39.6770361,79.7154754 C39.6770361,84.4361246 43.5070256,88.1769335 48.1384942,88.1769335 Z M69.6038895,85.8611992 C66.1302403,85.8611992 63.5472508,83.1000396 63.5472508,79.7154754 C63.5472508,76.3309113 66.1302403,73.7479218 69.6038895,73.7479218 C72.9884537,73.7479218 75.7495178,76.3309113 75.7495178,79.7154754 C75.7495178,83.1000396 72.9884537,85.8611992 69.6038895,85.8611992 Z M48.1384942,85.8611992 C44.5757599,85.8611992 41.9928659,83.1000396 41.9928659,79.7154754 C41.9928659,76.3309113 44.5757599,73.7479218 48.1384942,73.7479218 C51.4340688,73.7479218 54.195133,76.3309113 54.195133,79.7154754 C54.195133,83.1000396 51.4340688,85.8611992 48.1384942,85.8611992 Z M39.3207913,60.2986547 L48.0494092,60.2986547 C48.5838241,60.2986547 49.118239,59.6752502 49.118239,59.1408353 C49.118239,58.4282503 48.5838241,57.9829204 48.0494092,57.9829204 L39.3207913,57.9829204 C38.6082063,57.9829204 38.2519615,58.4282503 38.2519615,59.1408353 C38.2519615,59.6752502 38.6082063,60.2986547 39.3207913,60.2986547 Z M39.3207913,39.1005146 L48.0494092,39.1005146 C48.5838241,39.1005146 49.118239,38.6551848 49.118239,37.8536102 C49.118239,37.2301102 48.5838241,36.7847803 48.0494092,36.7847803 L39.3207913,36.7847803 C38.6082063,36.7847803 38.2519615,37.2301102 38.2519615,37.8536102 C38.2519615,38.6551848 38.6082063,39.1005146 39.3207913,39.1005146 Z" id="Fill-1" fill="#888888"></path>
    </g>
</svg>